<svg viewBox="0 0 40 41" fill="none"><g clip-path="url(#clip0_536_2004)"><path d="M5.4 10.76a3.1 3.1 0 0 1 3.56.19L7.88 9.38c-.86-1.23-.55-2.57.68-3.43C9.8 5.08 13.3 7.4 13.3 7.4c-.87-1.24-.71-2.82.54-3.7a2.76 2.76 0 0 1 3.84.68l11.57 16.36-1.47 14.3-12.32-4.49L4.72 14.63a2.77 2.77 0 0 1 .68-3.87" fill="#EF9645"/><path d="M3 19.86s-1.26-1.83.57-3.09 3.09.58 3.09.58l5.83 8.5q.3-.5.67-.99l-8.1-11.8s-1.25-1.84.58-3.1c1.83-1.25 3.09.58 3.09.58l7.62 11.1q.42-.34.87-.68L8.39 8.08s-1.26-1.83.57-3.1c1.84-1.25 3.1.58 3.1.58l8.82 12.88q.5-.29.97-.55L13.6 5.85s-1.26-1.83.57-3.09c1.84-1.25 3.1.58 3.1.58l8.72 12.73L27.32 18a11.13 11.13 0 0 0-2.88 15.45c.62.91 1.54.29 1.54.29-3.77-5.5-2.62-11.68 2.88-15.45l-1.62-8.11s-.6-2.14 1.53-2.75c2.14-.6 2.74 1.53 2.74 1.53l1.88 5.56c.74 2.2 1.53 4.4 2.57 6.48a13.34 13.34 0 0 1-22.91 13.52z" fill="#FFDC5D"/><path d="M13.33 36.2c-4.44 0-8.93-4.5-8.93-8.94 0-.61-.45-1.1-1.07-1.1-.61 0-1.15.49-1.15 1.1 0 6.67 4.49 11.16 11.15 11.16.62 0 1.11-.54 1.11-1.16s-.5-1.06-1.1-1.06" fill="#5DADEC"/><path d="M7.78 38.38c-3.34 0-5.56-2.23-5.56-5.56a1.11 1.11 0 0 0-2.22 0 7.6 7.6 0 0 0 7.78 7.78 1.11 1.11 0 0 0 0-2.22M26.67 2.82a1.11 1.11 0 0 0 0 2.22c4.44 0 8.89 3.99 8.89 8.9a1.11 1.11 0 1 0 2.22 0c0-6.14-4.45-11.12-11.11-11.12" fill="#5DADEC"/><path d="M32.22.64c-.61 0-1.1.46-1.1 1.07s.49 1.16 1.1 1.16c3.34 0 5.51 2.47 5.51 5.5 0 .62.54 1.12 1.16 1.12s1.06-.5 1.06-1.11A7.63 7.63 0 0 0 32.22.64" fill="#5DADEC"/></g><defs><clipPath id="clip0_536_2004"><rect width="40" height="40" fill="white" transform="translate(0 0.597885)"/></clipPath></defs></svg>