<svg width="300" height="379" viewBox="0 0 300 379" fill="none" xmlns="http://www.w3.org/2000/svg"><path opacity=".4" d="M16.16 361.4 0 352.16l24.17-13.83 16.15 9.23z" fill="#D6D8E5"/><path d="M16.49 342.77 3.1 335.05l13.38-7.72 13.37 7.72z" fill="#D6D8E5"/><path d="M16.49 358.22 3.1 350.5v-15.45l13.38 7.72z" fill="#B1B6C4"/><path d="m29.87 350.5-13.38 7.72v-15.45l13.38-7.72z" fill="#C4C7D6"/><path d="M34.47 345.67c1.16.32 2.4.17 3.44-.42.83 0 5.34-1.9 5.95-.27.54 1.4-1.41 2.73-2.46 2.97-2.26.56-3.96 1.7-4.87 1.89a2.3 2.3 0 0 1-2.1-.3c-.66-.69-.6-3.06.04-3.87" fill="#38226D"/><path d="M36.53 349.4c.91-.19 2.6-1.32 4.87-1.88.87-.2 2.38-1.16 2.53-2.3.2 1.3-1.56 2.46-2.53 2.7-2.26.55-3.96 1.68-4.87 1.88a2.3 2.3 0 0 1-2.1-.3 1 1 0 0 1-.3-.55 2.7 2.7 0 0 0 2.4.46" fill="#9C73FF"/><path d="M26.35 341.3c1.15.33 2.39.18 3.44-.4.83 0 5.3-1.9 5.94-.29.54 1.41-1.41 2.73-2.45 2.98-2.27.55-3.96 1.69-4.88 1.88a2.3 2.3 0 0 1-2.1-.3c-.65-.64-.58-3.02.05-3.86" fill="#38226D"/><path d="M28.4 345.08c.92-.2 2.6-1.33 4.88-1.88.87-.21 2.38-1.17 2.53-2.3.2 1.3-1.56 2.46-2.53 2.7-2.27.54-3.96 1.68-4.88 1.87a2.3 2.3 0 0 1-2.1-.3 1 1 0 0 1-.3-.54 2.7 2.7 0 0 0 2.4.45" fill="#9C73FF"/><path d="M13.7 335.7c3.5 1.51 6.8 1.79 9.53.34l2.8-1.62.32 7.08s2.15 1.63 3.78.18l.7-10.06 2.94-1.7q-.1.4-.11.82c0 .94.68 15.04.68 15.04s2.16 1.28 3.84-.16c0 0 1.12-16.33 1.38-18.91.29-2.94-2.97-4.38-5.03-3.63l-3.15 1.17.15-1.81c.3-2.94-2.96-4.38-5.02-3.64l-14.55 5.44q.12 1.84.44 3.64l-5-.42c-.27 4.68 2.78 6.7 6.3 8.24m8.73-8.11 3.36-1.93q-.1.35-.11.71z" fill="#6889CA"/><path d="M4.69 313.15s.4 6.22 1.22 7.12 3.59 1.51 3.59 1.51l2.13 3.47s-1.95-11.1-2.37-11.35c-.43-.24-4.57-.75-4.57-.75" fill="#FFCEA9"/><path d="M8.78 306.23a2.34 2.34 0 0 0-2.96.87c-.76 1.29-1.6 5.74-1.67 6.5a3.1 3.1 0 0 0 2.74 1.26z" fill="#EDEDED"/><path d="M9.53 306.34c1.07.05 1.88.32 2.01 0q.18-.84.24-1.68c-.12-.32-.22-.65-.22-.65-1.36-.83-1.78-2.27-1.96-4-.3-2.9 1.27-5.45 4.17-5.75 2.74-.29 4.75 1.63 5.3 4.27.29 1.3.86 3.79.08 5.91-.43 1.2-.99 2.15-1.51 2.33a13 13 0 0 1-1.62-.14l-.24 1.33c-.1.51-.07.8.97 1.43 1.03.63-1.56 1.94-3.26 1.81s-3.6-1.15-4.12-2.27c-.63-1.22-.58-2.66.16-2.6" fill="#FFCEA9"/><path d="M36.8 325.36a.9.9 0 0 1-.43.76l-8.2 4.73a.9.9 0 0 1-.89 0l-11.5-6.64a.9.9 0 0 1-.43-.75v-.06z" fill="#E5E5E5"/><path d="m36.37 326.12-8.2 4.73a1 1 0 0 1-.45.12v-5.6h9.08a.9.9 0 0 1-.43.75" fill="#E5E5E5"/><path d="M28.03 330.42a.6.6 0 0 1-.61 0l-11.96-6.9c-.15-.09-.15-.23 0-.31l8.8-5.1 12.55 7.25z" fill="#F4F4F4"/><path d="m20.37 325.36.06.03 3.84 2.22 2.1-1.22.06-.03-3.9-2.25z" fill="#BFBFBF"/><path d="m20.43 325.4 3.84 2.2 2.1-1.2-3.84-2.22z" fill="#E5E5E5"/><path d="m33.55 325.72.56.31q.03.03.08.03l.09-.02.53-.3c.05 0 .06-.08 0-.1l-.55-.33a.2.2 0 0 0-.18 0l-.53.3q-.05.06 0 .1" fill="#3A2C6D"/><path d="m32.77 325.25.56.32.08.02q.04 0 .1-.02l.52-.3c.05 0 .05-.08 0-.1l-.55-.32-.09-.03-.09.03-.53.3q-.05.09 0 .1" fill="#3A2C6D"/><path d="m31.99 324.82.55.31a.2.2 0 0 0 .18 0l.52-.3c.06 0 .06-.07 0-.1l-.55-.32-.09-.02q-.05 0-.08.02l-.53.3q-.07.06 0 .1" fill="#3A2C6D"/><path d="m31.2 324.36.56.32a.2.2 0 0 0 .17 0l.53-.3c.06 0 .06-.08 0-.1l-.55-.32a.2.2 0 0 0-.18 0l-.52.3q-.07.05 0 .1" fill="#3A2C6D"/><path d="m30.42 323.91.56.32.09.02q.05 0 .09-.02l.52-.3c.05 0 .06-.08 0-.1l-.55-.33-.1-.02-.08.02-.53.31q-.06.06 0 .1" fill="#3A2C6D"/><path d="m29.64 323.46.56.32.08.02.09-.02.53-.3c.05 0 .06-.09 0-.1l-.55-.32-.1-.03-.09.03-.52.3q-.05.05 0 .1" fill="#3A2C6D"/><path d="m28.86 322.98.56.32.08.02.09-.02.53-.3c.05 0 .05-.08 0-.11l-.55-.32a.2.2 0 0 0-.18 0l-.53.3q-.06.1 0 .1" fill="#3A2C6D"/><path d="m28.08 322.56.55.31q.04.02.09.02t.08-.02l.53-.3c.06 0 .06-.07 0-.1l-.55-.32-.09-.02-.08.02-.53.3q-.07.06 0 .1" fill="#3A2C6D"/><path d="m27.3 322.1.55.32a.2.2 0 0 0 .17 0l.53-.3c.06 0 .06-.08 0-.1l-.56-.33-.09-.02q-.05 0-.09.02l-.53.3q-.08.07.02.11" fill="#3A2C6D"/><path d="m26.51 321.66.55.31a.2.2 0 0 0 .19 0l.52-.3c.05 0 .06-.07 0-.1l-.54-.33-.09-.02q-.05 0-.08.02l-.53.3q-.08.06-.02.12" fill="#3A2C6D"/><path d="m25.72 321.2.55.32a.2.2 0 0 0 .17 0l.53-.3c.06 0 .06-.08 0-.1l-.5-.33a.2.2 0 0 0-.18 0l-.52.3q-.06.06-.05.11" fill="#3A2C6D"/><path d="m24.96 320.75.56.32.09.02.08-.02.53-.3c.05 0 .06-.08 0-.1l-.55-.33-.09-.02q-.04 0-.08.02l-.53.31c-.06.06-.06.06 0 .1" fill="#3A2C6D"/><path d="m24.2 320.3.56.32a.2.2 0 0 0 .17 0l.53-.31c.05 0 .06-.08 0-.1l-.55-.32-.1-.02-.08.02-.53.3q-.11.06 0 .1" fill="#3A2C6D"/><path d="m23 319.63.94.54a.2.2 0 0 0 .17 0l.53-.3c.06 0 .06-.08 0-.11l-.92-.56-.09-.02-.08.02-.53.3-.03.01-.02.01-.01.02a.1.1 0 0 0 .03.08z" fill="#3A2C6D"/><path d="m31.63 325.48.56.32.09.02q.05 0 .09-.02l.53-.3c.04 0 .05-.08 0-.1l-.56-.32-.08-.02q-.04 0-.1.02l-.52.3q-.07.07 0 .1" fill="#3A2C6D"/><path d="m30.85 325.03.56.32a.2.2 0 0 0 .17 0l.53-.3c.05 0 .06-.08 0-.1l-.55-.32-.1-.02-.08.02-.53.3q-.05.06 0 .1" fill="#3A2C6D"/><path d="m30.07 324.58.55.32a.2.2 0 0 0 .18 0l.52-.3c.06 0 .06-.08 0-.1l-.55-.33-.09-.02-.08.02-.53.3q-.07.05 0 .11" fill="#3A2C6D"/><path d="m29.29 324.13.55.32.09.02.08-.02.53-.3c.06 0 .06-.08 0-.11l-.55-.32-.09-.02q-.05 0-.08.02l-.53.3q-.07.06 0 .1" fill="#3A2C6D"/><path d="m28.5 323.68.56.32a.2.2 0 0 0 .17 0l.53-.31c.06 0 .06-.07 0-.1l-.55-.32-.09-.02-.09.02-.52.3q-.07.07 0 .1" fill="#3A2C6D"/><path d="m27.72 323.23.55.32a.2.2 0 0 0 .19 0l.52-.3c.05 0 .06-.08 0-.11l-.55-.32-.1-.02q-.03 0-.08.02l-.53.3q-.06.06 0 .1" fill="#3A2C6D"/><path d="m26.94 322.77.55.32q.04.02.1.02.03 0 .08-.02l.53-.3c.05 0 .05-.08 0-.1l-.55-.32a.2.2 0 0 0-.18 0l-.53.3q-.06.05 0 .1" fill="#3A2C6D"/><path d="m26.16 322.32.55.32.09.02q.05 0 .08-.02l.53-.3c.05 0 .06-.08 0-.1l-.55-.33a.2.2 0 0 0-.18 0l-.52.31c-.04 0-.05.08 0 .1" fill="#3A2C6D"/><path d="m25.37 321.87.56.31.09.03.08-.02.53-.3c.05 0 .06-.08 0-.1l-.55-.32-.09-.03q-.05 0-.08.03l-.53.3q-.07.06-.01.1" fill="#3A2C6D"/><path d="m24.59 321.41.55.33.09.02.09-.02.53-.31c.05 0 .06-.08 0-.1l-.56-.32a.2.2 0 0 0-.18 0l-.52.3q-.07.06 0 .1" fill="#3A2C6D"/><path d="m23.8 320.97.56.31a.2.2 0 0 0 .18 0l.52-.3c.05 0 .06-.07 0-.1l-.55-.32a.2.2 0 0 0-.18 0l-.53.3q-.05.06 0 .1" fill="#3A2C6D"/><path d="m23.02 320.51.56.32a.2.2 0 0 0 .17 0l.53-.3c.05 0 .05-.08 0-.1l-.55-.32a.2.2 0 0 0-.18 0l-.53.3q-.06.05 0 .1" fill="#3A2C6D"/><path d="m32.42 325.94.93.53.09.02.08-.02.53-.3c.06 0 .06-.07 0-.1l-.93-.54-.09-.02q-.05 0-.09.02l-.52.3q-.07.06 0 .1" fill="#3A2C6D"/><path d="m22.96 319.65.55.32c.04 0 .04.07 0 .1l-.56.31-.08.03q-.05 0-.08-.03h-.05a.2.2 0 0 0-.15 0l-.59.35a.2.2 0 0 1-.16 0l-.35-.2c-.05 0-.05-.08 0-.1l.55-.32.11-.07.09-.05.08-.04.47-.28a.2.2 0 0 1 .17-.02" fill="#3A2C6D"/><path d="m30.52 327.46.55.32q.05.03.09.02.05 0 .09-.02l.53-.3c.05 0 .05-.08 0-.1l-.56-.32-.08-.02q-.04 0-.09.02l-.53.3q-.06.07 0 .1" fill="#3A2C6D"/><path d="m29.74 327.02.55.32.1.02.08-.02.53-.3c.05 0 .05-.08 0-.11l-.56-.32a.2.2 0 0 0-.17 0l-.53.3q-.06.06 0 .1" fill="#3A2C6D"/><path d="m28.95 326.56.56.32q.04.02.1.02.03 0 .08-.02l.53-.3c.04 0 .05-.08 0-.1l-.55-.32a.2.2 0 0 0-.18 0l-.53.31q-.06.05 0 .1" fill="#3A2C6D"/><path d="m22.31 322.73.56.32.09.02.09-.02.52-.3c.05 0 .06-.08 0-.1l-.55-.33-.09-.02-.09.02-.53.31q-.05.06 0 .1" fill="#3A2C6D"/><path d="m21.53 322.28.56.32.08.02.1-.02.52-.3c.05 0 .06-.08 0-.1l-.55-.32-.1-.03-.08.02-.53.3c-.03.05-.04.05 0 .11" fill="#3A2C6D"/><path d="m20.76 321.83.55.32.08.02q.04 0 .1-.02l.52-.3c.05 0 .06-.08 0-.1l-.55-.33a.2.2 0 0 0-.18 0l-.52.31q-.07.06 0 .1" fill="#3A2C6D"/><path d="m19.98 321.38.55.32.09.02.08-.02.53-.3c.05 0 .05-.08 0-.1l-.56-.32-.08-.03q-.06 0-.1.03l-.52.3q-.05.05 0 .1" fill="#3A2C6D"/><path d="m27.99 326 .75.44a.2.2 0 0 0 .18 0l.53-.3c.05 0 .06-.07 0-.1l-.76-.44-.09-.02q-.05 0-.08.02l-.53.3c-.05.03-.06.1 0 .1" fill="#3A2C6D"/><path d="m23.1 323.18.75.44.09.02.08-.02.53-.3c.06 0 .06-.08 0-.11l-.75-.44-.1-.01-.08.01-.53.3q-.06.06 0 .11" fill="#3A2C6D"/><path d="m24.08 323.74 3.67 2.12a.2.2 0 0 0 .18 0l.53-.3c.05 0 .05-.08 0-.1l-3.67-2.12a.2.2 0 0 0-.18 0l-.53.3q-.07.08 0 .1" fill="#3A2C6D"/><path d="m30.66 325.8.56.32.08.02q.05 0 .09-.02l.53-.3c.05 0 .06-.08 0-.11l-.55-.32a.2.2 0 0 0-.18 0l-.53.3q-.05.06 0 .11" fill="#3A2C6D"/><path d="m29.89 325.35.55.31a.2.2 0 0 0 .17 0l.53-.3c.05 0 .05-.07 0-.1l-.55-.31-.09-.03-.09.03-.52.3c-.04 0-.05.07 0 .1" fill="#3A2C6D"/><path d="m29.1 324.9.56.32a.2.2 0 0 0 .17 0l.53-.3c.05 0 .05-.08 0-.11l-.55-.32-.09-.02-.08.02-.53.3q-.07.05-.01.11" fill="#3A2C6D"/><path d="m28.32 324.45.55.31.09.03.09-.03.52-.3c.06 0 .07-.07 0-.1l-.55-.32-.08-.02-.1.02-.52.3q-.07.06 0 .1" fill="#3A2C6D"/><path d="m27.54 324 .55.31a.2.2 0 0 0 .18 0l.53-.31c.05 0 .06-.07 0-.1l-.56-.32-.09-.02-.09.02-.52.3q-.07.08 0 .11" fill="#3A2C6D"/><path d="m26.76 323.55.55.31a.2.2 0 0 0 .18 0l.53-.3c.04 0 .05-.07 0-.1l-.56-.32-.08-.02-.09.02-.53.3q-.06.06 0 .1" fill="#3A2C6D"/><path d="m25.97 323.1.56.31a.2.2 0 0 0 .18 0l.52-.3c.05 0 .06-.08 0-.1l-.55-.33-.09-.01-.09.01-.53.31q-.05.06 0 .1" fill="#3A2C6D"/><path d="m25.2 322.64.52.34a.2.2 0 0 0 .17 0l.53-.31c.05 0 .06-.08 0-.1l-.55-.32-.1-.02-.08.02-.52.3q-.03.04.03.09" fill="#3A2C6D"/><path d="m24.42 322.22.55.32.09.02q.05 0 .08-.02l.53-.3c.05 0 .05-.08 0-.1l-.55-.33-.09-.01-.08.01-.53.3q-.07.01 0 .11" fill="#3A2C6D"/><path d="m23.63 321.74.55.32a.2.2 0 0 0 .18 0l.53-.3c.05 0 .06-.08 0-.1l-.56-.33-.08-.02-.1.02-.52.31q-.07.06 0 .1" fill="#3A2C6D"/><path d="m22.85 321.29.55.32a.2.2 0 0 0 .18 0l.53-.31c.05 0 .06-.08 0-.1l-.56-.32-.09-.02-.09.02-.52.3q-.06.06 0 .1" fill="#3A2C6D"/><path d="m22.07 320.84.55.32a.2.2 0 0 0 .18 0l.53-.3c.05 0 .05-.08 0-.11l-.56-.32-.08-.02-.09.02-.53.3q-.06.06 0 .1" fill="#3A2C6D"/><path d="m31.44 326.25 1.15.66a.2.2 0 0 0 .18 0l.52-.3c.05 0 .06-.08 0-.1l-1.14-.66-.09-.03-.09.03-.53.3q-.05.05 0 .1" fill="#3A2C6D"/><path d="m30.3 326.46.55.32.08.02.09-.02.53-.3c.05 0 .06-.08 0-.1l-.55-.32a.2.2 0 0 0-.18 0l-.53.3q-.04.06 0 .1" fill="#3A2C6D"/><path d="m29.5 326 .55.32a.2.2 0 0 0 .18 0l.52-.3c.06 0 .07-.08 0-.1l-.55-.32-.1-.02-.08.02-.52.3z" fill="#3A2C6D"/><path d="m28.74 325.56.56.32.08.02q.04 0 .09-.02l.53-.3c.04 0 .05-.08 0-.1l-.55-.33-.1-.02-.08.02-.53.31q-.07.06 0 .1" fill="#3A2C6D"/><path d="m27.99 325.1.55.33a.2.2 0 0 0 .18 0l.52-.31c.06 0 .06-.08 0-.1l-.55-.32-.09-.02q-.05 0-.08.02l-.53.3q-.13.06 0 .1" fill="#3A2C6D"/><path d="m27.17 324.66.55.32a.2.2 0 0 0 .18 0l.53-.3c.05 0 .06-.08 0-.11l-.56-.32a.2.2 0 0 0-.18 0l-.52.3q-.07.06 0 .1" fill="#3A2C6D"/><path d="m26.4 324.2.54.32q.04.03.09.02t.09-.02l.53-.3c.05 0 .05-.08 0-.1l-.56-.32a.2.2 0 0 0-.17 0l-.53.3q-.06.07 0 .1" fill="#3A2C6D"/><path d="m25.6 323.74.56.31a.2.2 0 0 0 .18 0l.52-.3c.05 0 .06-.07 0-.1l-.55-.32-.09-.02q-.05 0-.09.02l-.53.3q-.05.09 0 .1" fill="#3A2C6D"/><path d="m24.82 323.3.56.32q.03.02.08.02.04 0 .1-.02l.52-.3c.05 0 .06-.08 0-.1l-.55-.32a.2.2 0 0 0-.18 0l-.53.3q-.05.05 0 .1" fill="#3A2C6D"/><path d="m24.05 322.85.55.32a.2.2 0 0 0 .17 0l.53-.31c.05 0 .05-.08 0-.1l-.56-.32-.09-.02q-.05 0-.08.02l-.53.3q-.05.07 0 .11" fill="#3A2C6D"/><path d="m23.27 322.4.55.32.09.02.08-.02.53-.3c.05 0 .06-.08 0-.1l-.55-.32a.2.2 0 0 0-.17 0l-.53.3q-.07.05 0 .1" fill="#3A2C6D"/><path d="m22.48 321.95.55.32.1.02.08-.02.53-.3c.05 0 .06-.08 0-.1l-.56-.33-.08-.02-.1.02-.52.31q-.07.06 0 .1" fill="#3A2C6D"/><path d="m20.73 320.95 1.52.87.08.02.09-.02.53-.3c.05 0 .06-.08 0-.1l-1.51-.88-.1-.03-.09.03-.52.3q-.06.05 0 .1" fill="#3A2C6D"/><path d="m31.07 326.91.76.44a.2.2 0 0 0 .17 0l.53-.3c.06 0 .06-.09 0-.1l-.75-.45-.1-.01-.08.01-.53.31q-.09.06 0 .1" fill="#3A2C6D"/><path d="m36.8 325.36-12.53-7.24v-9.84l.1-.22.1-.05a.9.9 0 0 1 .86 0l11.48 6.62a.9.9 0 0 1 .43.75v9.26c-.09.45-.18.56-.43.72" fill="#E5E5E5"/><path d="m35.66 315.8-11.4-7.2v-.32l.1-.22.1-.05a.9.9 0 0 1 .87 0l11.48 6.62q.21.12.32.35z" fill="#E5E5E5"/><path d="m24.55 308.03 12.04 6.95q.1.06.16.16t.06.2v10.02l-12.55-7.24v-9.92a.2.2 0 0 1 .2-.2z" fill="#DCEEFF"/><path d="m24.55 308.03 12.04 6.95q.1.06.16.16t.06.2v10.02l-12.55-7.24v-9.92a.2.2 0 0 1 .2-.2z" fill="#F4F4F4"/><path d="M36.8 325.36V325l-12.53-7.24v.36z" fill="#DBDBDB"/><path d="M24.59 317.6v-9.05l.15.09v8.88z" fill="#1E3779"/><path d="M24.74 308.64v8.88l11.67 6.7v-8.85z" fill="#3A2C6D"/><path d="m24.59 317.6 11.82 6.8v-.17l-11.67-6.71z" fill="#031F60"/><path d="M11.09 306.47c-.3.75.46 1.65 2.48 2.27s2.2-.19 2.2-.19q2.02.9 3.93 2.03c1.21.85 1.75 3.3 1.92 7.45.19 4.8.2 11.9.04 13.14 0 0-2.27 2.27-5.16 2.02s-7.8-2.8-8.97-4.79c0-4.2.52-4.9-.16-7.31-1.56-5.55-2.39-7.81-1.62-11.5.62-3.03 1.51-3.42 2.7-3.39q1.32.06 2.64.27" fill="#F4F4F4"/><path d="M26.4 323.18c-2.4.6-2.95-.9-3.26-2.14-.76-3.02-1.17-5.73-1.73-7.44-.67-2.01-1.37-2.34-2.35-2.73-1.14-.46-2.13.51-1.75 3.08q.7 4.47 2.18 8.76a8 8 0 0 0 1.95 3.4c1.24 1 3.09.95 5.89.26a32 32 0 0 0 4.76-2.07c.6-.28 1.08-.47 2.27-1.01a8 8 0 0 0 3.03-2.33c.6-.88.69-1.3.57-1.51-.13-.21-.44-.2-.76.17a7 7 0 0 1-1.71 1.58s.76-.75 1.16-1.28q.55-.7.9-1.5c.22-.52-.23-1.22-.57-.86-.34.37-.5.76-1.11 1.52q-.5.59-1.1 1.05a12 12 0 0 0 1.01-1.64c.27-.45.4-.98.38-1.5 0-.27-.4-.6-.76-.09a10 10 0 0 1-1.36 2.01c-.55.57-1 .9-1.02.76s.33-.47.52-1.12 0-1.36-.36-1.43c-.37-.08-.3-.06-.59.56q-.6.94-1.08 1.96a4 4 0 0 1-.98 1.69c-.58.6-1.87 1.29-4.14 1.85" fill="#FFCEA9"/><path d="M18.15 310.46c1.6-.23 2.72.49 3.42 2.89s1.19 4.39 1.19 4.39a4.3 4.3 0 0 1-2.66 1.77c-1.9.46-2.59-.45-2.59-.45s-.53-2.52-.85-4.24c-.33-1.72-.44-4.07 1.5-4.36" fill="#EDEDED"/><path d="M18.97 298.12s2.51-3.82-2.93-4.6c-3.93-.55-6.46 1.96-6.74 4.7-.28 2.62 1.33 5.33 2.48 6.42 1.15.29 2.36.14 3.4-.41q.1-1.08.08-2.15s-1.92-4.02 3.71-3.96" fill="#3A2C6D"/><path d="M29.87 346.47v-11.48l-9.11 5.32 3.5 7.25z" fill="#C4C7D6"/><path d="m23.9 335.65 3.49-2.03 2.47 1.43-3.62 2.06z" fill="#D6D8E5"/><path opacity=".4" d="m168 283.65-43.06-24.86c-3.1-1.8-2.72-4.92.87-7l27.9-16.1 54.3 31.38-27.89 16.1c-3.6 2.07-9.02 2.3-12.12.48" fill="#D6D8E5"/><path d="m171.14 281.82-43.06-24.86c-3.1-1.8-2.7-4.91.87-6.99l27.9-16.1 54.3 31.34-27.9 16.12c-3.58 2.06-9 2.32-12.1.5" fill="#B1B4C4"/><path d="M211.15 265.21v-1.64l-2.5 1.45z" fill="#B1B4C4"/><path d="M125.99 254v-1.67l2.57 1.07z" fill="#B1B4C4"/><path d="m171.14 280.18-43.06-24.86c-3.1-1.8-2.7-4.92.87-6.99l27.9-16.12 54.3 31.35-27.9 16.1c-3.58 2.09-9 2.3-12.1.52" fill="#D6D8E5"/><path d="m157 232.3-6.73-22.3 54.9 31.49 5.98 22.08z" fill="#9EA1AF"/><path d="m209.56 264.49 1.59-.92-2.39-1.86z" fill="#9EA1AF"/><path d="m155.26 233.14-6.72-22.3 54.9 31.48 6.12 22.17z" fill="#B1B4C4"/><path d="M294.6 302.07 82.14 179.39c-2.98-1.72-5.4-6.33-5.4-10.3V4.72c0-3.97 2.42-5.8 5.4-4.08L294.6 123.3c2.98 1.72 5.39 6.33 5.39 10.31v164.42c0 3.94-2.41 5.77-5.4 4.05" fill="#C4C7D6"/><path d="m295.7 303.76 2.36-1.36-1.02-6.98z" fill="#C4C7D6"/><path d="M76.35 1.66 78.66.33 82 2.23s-3.54.53-3.63.5c-.08-.01-2.01-1.07-2.01-1.07" fill="#B1B4C4"/><path d="M292.65 303.2 80.18 180.51c-2.98-1.72-5.4-6.34-5.4-10.3V5.84c0-3.97 2.42-5.8 5.4-4.08l212.47 122.67c2.98 1.73 5.4 6.34 5.4 10.32V299.1c0 3.98-2.41 5.8-5.4 4.08" fill="#E4E7F2"/><path d="M292.29 303.4 79.8 180.73c-2.98-1.72-5.4-6.34-5.4-10.3V6.04c0-3.97 2.42-5.8 5.4-4.08l212.48 122.7c2.97 1.7 5.39 6.32 5.39 10.3v164.36c0 3.98-2.42 5.8-5.4 4.07" fill="#201D38"/><path opacity=".3" d="M294.76 293.41 77.1 167.75l.11-161.03c0-1.64 1.16-2.31 2.59-1.5L292.29 127.9a5.7 5.7 0 0 1 2.58 4.47z" fill="#3A3756"/><path d="m209.23 107.47-14.42-8.33v-5.2l14.42 8.32z" fill="#A298E2"/><path d="m242.58 126.73-30.65-17.7v-5.2l30.64 17.7z" fill="#F4CE2C"/><path d="m209.23 124.12-14.42-8.32v-5.2l14.42 8.31z" fill="#A298E2"/><path d="m222.08 131.67-10.15-5.99v-5.2l10.15 5.98z" fill="#4D3BFF"/><path d="m209.23 132.44-14.42-8.32v-5.2l14.42 8.32z" fill="#A298E2"/><path d="M229.06 143.89 211.93 134v-5.2l17.13 9.88z" fill="#4D3BFF"/><path d="m209.23 140.76-14.42-8.32v-5.2l14.42 8.33z" fill="#A298E2"/><path d="m257.1 168.34-45.17-26.01v-5.2l45.17 26.02z" fill="#FF8657"/><path d="m209.23 115.8-14.42-8.33v-5.2l14.42 8.32z" fill="#A298E2"/><path d="m268.2 149.87-56.27-32.52v-5.2l56.26 32.52z" fill="#A298E2"/><path d="m209.23 149.1-14.42-8.34v-5.2l14.42 8.33z" fill="#A298E2"/><path d="m260.6 179.27-48.67-28.61v-5.2l48.67 28.6z" fill="#C33AFC"/><path d="m209.23 165.75-14.42-8.33v-5.2l14.42 8.32z" fill="#A298E2"/><path d="m268.72 200.09-56.79-32.78v-5.2l56.79 32.77z" fill="#A298E2"/><path d="m209.23 174.07-14.42-8.32v-5.2l14.42 8.31z" fill="#A298E2"/><path d="m229.06 185.52-17.13-9.9v-5.19l17.13 9.89z" fill="#C33AFC"/><path d="m209.23 182.4-14.42-8.33v-5.2l14.42 8.32z" fill="#A298E2"/><path d="m246.92 204.25-34.99-20.3v-5.2l35 20.3z" fill="#4D3BFF"/><path d="m209.23 157.42-14.42-8.33v-5.2l14.42 8.33z" fill="#A298E2"/><path d="m218.24 162.62-6.3-3.64v-5.2l6.3 3.64z" fill="#4D3BFF"/><path d="m209.23 190.72-14.42-8.32v-5.2l14.42 8.32z" fill="#A298E2"/><path d="m234.52 205.3-22.59-13.02v-5.2l22.59 13z" fill="#C33AFC"/><path d="m209.23 207.37-14.42-8.33v-5.2l14.42 8.33z" fill="#A298E2"/><path d="m244.89 227.72-32.96-18.79v-5.2l32.96 18.78z" fill="#FF8657"/><path d="m209.23 215.7-14.42-8.33v-5.2l14.42 8.33z" fill="#A298E2"/><path d="m216.05 219.86-4.12-2.6v-5.2l4.12 2.6z" fill="#A298E2"/><path d="m209.23 224.02-14.42-8.32v-5.2l14.42 8.32z" fill="#A298E2"/><path d="m230.84 236.47-18.9-10.88v-5.2l18.9 10.88z" fill="#F4CE2C"/><path d="m209.23 199.04-14.42-8.32v-5.2l14.42 8.32z" fill="#A298E2"/><path d="m238.23 215.7-26.3-15.1v-5.2l26.3 15.1z" fill="#4D3BFF"/><path d="m115.94 55.44-14.42-8.33v-5.2l14.42 8.32z" fill="#A298E2"/><path d="m179.93 92.38-61.29-35.39v-5.2l61.29 35.38z" fill="#C33AFC"/><path d="m115.94 72.08-14.42-8.32v-5.2l14.42 8.32z" fill="#A298E2"/><path d="m159.2 97.06-40.56-23.42v-5.2l40.56 23.42z" fill="#F4CE2C"/><path d="m115.94 80.41-14.42-8.33v-5.2l14.42 8.33z" fill="#A298E2"/><path d="m169.11 111.1-50.47-29.13v-5.2l50.47 29.13z" fill="#FF8657"/><path d="m115.94 88.73-14.42-8.32v-5.2l14.42 8.32z" fill="#A298E2"/><path d="m153.79 110.6-35.15-20.3v-5.2l35.15 20.29z" fill="#A298E2"/><path d="m115.94 63.76-14.42-8.33v-5.2l14.42 8.32z" fill="#A298E2"/><path d="m149.28 83.01-30.64-17.69v-5.2l30.64 17.69z" fill="#4D3BFF"/><path d="m115.94 97.06-14.42-8.33v-5.2l14.42 8.33z" fill="#A298E2"/><path d="m136.67 109.03-18.03-10.41v-5.2l18.02 10.4z" fill="#C33AFC"/><path d="m115.94 113.7-14.42-8.32v-5.2l14.42 8.32z" fill="#A298E2"/><path d="m175.42 148.06-56.78-32.79v-5.2l56.78 32.78z" fill="#F4CE2C"/><path d="m115.94 122.04-14.42-8.33v-5.2l14.42 8.32z" fill="#A298E2"/><path d="m135.76 133.48-17.12-9.89v-5.2l17.12 9.89z" fill="#FF8657"/><path d="m115.94 130.36-14.42-8.32v-5.2l14.42 8.32z" fill="#A298E2"/><path d="m169.11 161.06-50.47-29.14v-5.2l50.47 29.14z" fill="#A298E2"/><path d="m115.94 105.39-14.42-8.33v-5.2l14.42 8.32z" fill="#A298E2"/><path d="m166.4 134.52-47.76-27.57v-5.2l47.77 27.57z" fill="#4D3BFF"/><path d="m115.94 138.68-14.42-8.32v-5.2l14.42 8.32z" fill="#A298E2"/><path d="m124.95 143.89-6.31-3.64v-5.2l6.3 3.63z" fill="#C33AFC"/><path d="m115.94 155.34-14.42-8.33v-5.2l14.42 8.33z" fill="#A298E2"/><path d="m130.36 163.66-11.72-6.76v-5.2l11.72 6.76z" fill="#F4CE2C"/><path d="m115.94 163.66-14.42-8.32v-5.2l14.42 8.32z" fill="#A298E2"/><path d="m149.28 182.92-30.64-17.7v-5.2l30.64 17.7z" fill="#FF8657"/><path d="m115.94 171.99-14.42-8.33v-5.2l14.42 8.32z" fill="#A298E2"/><path d="m167.3 201.65-48.66-28.1v-5.2l48.67 28.1z" fill="#A298E2"/><path d="m115.94 147.01-14.42-8.33v-5.2l14.42 8.33z" fill="#A298E2"/><path d="m179.93 183.95-61.29-35.38v-5.2l61.29 35.38z" fill="#4D3BFF"/><path opacity=".4" d="M226.73 378.2c17.48 0 31.65-8.19 31.65-18.28s-14.17-18.27-31.65-18.27-31.65 8.18-31.65 18.27 14.17 18.28 31.65 18.28" fill="#D6D8E5"/><path d="M261.49 357.33V308.6l-63.17 1.59.13 44.93c-1.18 5.4 1.82 11.05 9.01 15.2 12.36 7.14 32.4 7.15 44.76 0 6.2-3.6 9.3-8.3 9.27-13" fill="#A6CE28"/><path d="M229.84 326.86c17.48 0 31.65-8.18 31.65-18.28 0-10.09-14.17-18.27-31.65-18.27s-31.65 8.18-31.65 18.27 14.17 18.28 31.65 18.28" fill="#BCD64D"/><path d="M256.49 308.6c0 2.98-2.48 6.1-6.78 8.6-4.69 2.69-11.1 4.35-17.84 4.62-.67 0-1.34.05-2.03.05-7.48 0-14.72-1.71-19.87-4.68-4.3-2.49-6.77-5.61-6.77-8.58 0-2.98 2.47-6.1 6.77-8.59 5.15-2.97 12.39-4.68 19.87-4.68q1.02-.01 2.03.05c6.75.27 13.16 1.93 17.85 4.63 4.3 2.47 6.77 5.56 6.77 8.59" fill="#28221C"/><path opacity=".07" d="M256.49 308.6c0 2.98-2.48 6.1-6.78 8.6-4.69 2.69-11.1 4.35-17.84 4.62-6.75-.27-13.16-1.93-17.84-4.63-4.3-2.53-6.78-5.63-6.78-8.58s2.47-6.1 6.76-8.59c4.7-2.7 11.1-4.36 17.85-4.63 6.75.27 13.16 1.93 17.85 4.63 4.3 2.47 6.78 5.56 6.78 8.59" fill="white"/><path d="m256.86 331.16-6.72-3.9-3.27 1.9 3.27 1.89v1.24l6.3 3.63-.19 1.17c.92.75 4.18 6.8 4.18 6.8l.22-.2v15.67c0 4.12-2.41 2.72-3.44 2.13l-7.07-4.09-3.27 1.89 3.27 1.88v1.24l7.07 4.08q1.08.65 2.27 1.03l-.42 1.97 3.66-2.06h.1c1.52-.9 2.16-3.07 2.16-5.5v-16.46c.03-6.95-5.3-12.4-8.12-14.31" fill="#8DA01F"/><path d="m253.94 368.4-7.07-4.08v-5.03l7.07 4.08c1.03.59 3.44 1.99 3.44-2.13v-16.38c0-3.87-3.5-6.55-4.1-6.97l-6.4-3.7v-5.03l6.7 3.89c2.84 1.91 8.13 7.37 8.13 14.32v16.4c0 4.42-2.02 7.95-7.77 4.64" fill="#99B524"/><path opacity=".4" d="M31.3 281.39c12.03 0 21.78-5.64 21.78-12.6 0-6.94-9.75-12.58-21.79-12.58S9.5 261.85 9.5 268.8s9.76 12.58 21.8 12.58" fill="#D6D8E5"/><path d="M34.4 279.06c12.04 0 21.8-5.64 21.8-12.6 0-6.94-9.76-12.58-21.8-12.58-12.03 0-21.8 5.64-21.8 12.59s9.77 12.59 21.8 12.59" fill="#D6D8E5"/><path d="m5.23 223.45 7.62 43.89h43.29l7.43-43.58z" fill="#D6D8E5"/><path d="M34.4 239.76c16.13 0 29.2-7.55 29.2-16.86s-13.07-16.86-29.2-16.86S5.2 213.6 5.2 222.9s13.07 16.86 29.2 16.86" fill="#E4E6EF"/><path d="M34.4 236.04c-7.15 0-13.83-1.57-18.79-4.44-4.26-2.45-6.7-5.63-6.7-8.7s2.44-6.25 6.7-8.7c4.96-2.86 11.64-4.44 18.8-4.44s13.83 1.58 18.78 4.44c4.26 2.45 6.7 5.63 6.7 8.7s-2.4 6.29-6.7 8.7c-4.95 2.88-11.59 4.44-18.79 4.44" fill="#28221C"/><path d="M46.96 209.62a36.9 36.9 0 0 0-12.39-30.36l-.08-.08v.16a36.9 36.9 0 0 0-12.4 30.37L5.4 208.1c7.05 26.56 29.18 24.27 29.18 24.27v-.05c1.68.13 22.33 1.2 29.08-24.28z" fill="#99B524"/><path d="M34.57 232.37s-1.5-20.68-29.25-34.6c-.03 0-6.58 34.35 29.25 34.6" fill="#A6CE28"/><path d="M34.4 232.37s1.51-20.68 29.26-34.6c0 0 6.57 34.35-29.26 34.6" fill="#A6CE28"/></svg>