<svg width="20" height="20" viewBox="0 0 20 20" fill="none" xmlns="http://www.w3.org/2000/svg">
<path fill-rule="evenodd" clip-rule="evenodd" d="M2.83025 0.31871L3.07967 0.525446L9.99801 7.44779L16.9177 0.529448C17.2358 0.210724 17.6616 0.0225379 18.1114 0.001897C18.5612 -0.0187439 19.0025 0.129654 19.3484 0.417908C19.6944 0.706162 19.92 1.11341 19.9808 1.55957C20.0417 2.00574 19.9334 2.45852 19.6773 2.82889L19.4706 3.08231L12.5482 9.99932L19.4706 16.9177C19.7893 17.2357 19.9775 17.6616 19.9981 18.1114C20.0187 18.5612 19.8703 19.0025 19.5821 19.3484C19.2938 19.6944 18.8866 19.9199 18.4404 19.9808C17.9943 20.0416 17.5415 19.9334 17.1711 19.6773L16.9177 19.4705L10.0007 12.5468L3.07967 19.4692C2.76158 19.7879 2.33576 19.9761 1.88594 19.9967C1.43612 20.0174 0.994857 19.869 0.648919 19.5807C0.30298 19.2925 0.0774037 18.8852 0.0165488 18.4391C-0.0443061 17.9929 0.0639646 17.5401 0.320069 17.1697L0.526805 16.9163L7.44915 9.99799L0.530807 3.07831C0.215898 2.75976 0.0308167 2.33542 0.011602 1.8879C-0.00761268 1.44039 0.140415 1.00174 0.426861 0.657369C0.713306 0.313002 1.11766 0.0875691 1.5612 0.0249672C2.00473 -0.0376347 2.45568 0.0670763 2.82625 0.31871H2.83025Z" fill="white" fill-opacity="0.8"/>
</svg>
