<svg viewBox="0 0 26 26" fill="none" xmlns="http://www.w3.org/2000/svg"><path d="M17.7 15.2a18 18 0 0 0 0-4.4h3.7a9 9 0 0 1 0 4.4m-5.6 6a17 17 0 0 0 1.5-3.9h3.2a9 9 0 0 1-4.7 3.9m-.3-6h-5a14 14 0 0 1 0-4.4h5a16 16 0 0 1 0 4.4M13 21.6q-1.4-2-2-4.3h4q-.6 2.4-2 4.3m-4.3-13H5.5Q7.1 6 10.2 4.9q-1 1.8-1.5 3.9m-3.2 8.7h3.2q.5 2.1 1.5 3.9-3.1-1-4.7-3.9m-.9-2.1a9 9 0 0 1 0-4.4h3.7a18 18 0 0 0 0 4.4m4.7-11q1.4 2 2 4.3h-4q.6-2.4 2-4.3m7.5 4.3h-3.2a17 17 0 0 0-1.5-3.9q3.1 1 4.7 3.9M13 2.2a10.8 10.8 0 1 0 0 21.7 10.8 10.8 0 0 0 0-21.7" fill="#83CBFF"/></svg>