<svg viewBox="0 0 128 128" fill="none" xmlns="http://www.w3.org/2000/svg"><path d="M56.8 85c-12.4-1.5-21.1-10.4-21.1-22 0-4.7 1.7-9.7 4.5-13-1.2-3.2-1-9.7.4-12.5 3.7-.4 8.8 1.5 11.8 4.3C56 40.6 59.7 40 64.3 40Q71 40 76 41.7c3-2.7 8-4.6 11.8-4.2 1.3 2.6 1.5 9.1.3 12.3 3 3.6 4.6 8.4 4.6 13.2 0 11.6-8.7 20.3-21.3 21.9 3.2 2 5.4 6.5 5.4 11.7v9.7c0 2.9 2.3 4.5 5.1 3.3a47.5 47.5 0 0 0 30.3-44.4 48 48 0 1 0-96 0c0 20.8 13.2 38 31 44.5 2.6 1 5-.7 5-3.3V99q-2.1 1-4.5 1c-6.2 0-9.8-3.4-12.5-9.7-1-2.5-2.1-4-4.3-4.3q-1.6-.2-1.5-1.1c0-1.1 1.9-2 3.8-2q3.9 0 7.5 5.2 2.6 4 6.2 4c2.3 0 3.8-1 6-3z" fill="white"/></svg>