<svg width="40" height="41" viewBox="0 0 40 41" fill="none" xmlns="http://www.w3.org/2000/svg">
<g clip-path="url(#clip0_536_2004)">
<path d="M5.40111 10.7612C6.44555 10.0312 8.01999 10.1712 8.95777 10.9457L7.88222 9.38234C7.01666 8.14789 7.32666 6.81234 8.56222 5.94567C9.79777 5.08234 13.2989 7.40345 13.2989 7.40345C12.4256 6.15678 12.5889 4.57678 13.8356 3.70234C14.4349 3.28354 15.176 3.1198 15.896 3.2471C16.6161 3.37439 17.2561 3.78231 17.6756 4.38123L29.2533 20.7368L27.7778 35.0423L15.4633 30.5512L4.72222 14.6257C4.51277 14.3274 4.36417 13.9909 4.28493 13.6352C4.20569 13.2795 4.19736 12.9116 4.26041 12.5527C4.32346 12.1938 4.45667 11.8508 4.6524 11.5434C4.84813 11.236 5.10255 10.9702 5.40111 10.7612V10.7612Z" fill="#EF9645"/>
<path d="M2.99445 19.8601C2.99445 19.8601 1.73667 18.0268 3.57111 16.7701C5.40333 15.5134 6.66 17.3457 6.66 17.3457L12.4944 25.8546C12.6956 25.519 12.9156 25.1879 13.1611 24.8612L5.06333 13.0534C5.06333 13.0534 3.80667 11.2212 5.64 9.96456C7.47222 8.70789 8.72889 10.5401 8.72889 10.5401L16.3456 21.6479C16.6289 21.4168 16.9189 21.1846 17.2178 20.9568L8.38778 8.07789C8.38778 8.07789 7.13111 6.24567 8.96445 4.989C10.7967 3.73233 12.0533 5.56455 12.0533 5.56455L20.8833 18.4412C21.2078 18.2423 21.5289 18.0701 21.8511 17.8879L13.5978 5.85233C13.5978 5.85233 12.3411 4.02011 14.1733 2.76344C16.0056 1.50678 17.2622 3.339 17.2622 3.339L25.9889 16.0657L27.3156 18.0012C21.8178 21.7723 21.2944 28.8668 24.4356 33.4479C25.0633 34.3646 25.98 33.7368 25.98 33.7368C22.21 28.2379 23.3611 22.059 28.86 18.289L27.2389 10.1757C27.2389 10.1757 26.6333 8.03789 28.77 7.43122C30.9078 6.82567 31.5144 8.96344 31.5144 8.96344L33.3867 14.5234C34.1289 16.7279 34.9189 18.9246 35.9644 21.0023C38.9167 26.869 37.1533 34.1601 31.5867 37.979C25.5144 42.1423 17.2133 40.5946 13.0489 34.5234L2.99445 19.8601Z" fill="#FFDC5D"/>
<path d="M13.3333 36.2001C8.8889 36.2001 4.39779 31.709 4.39779 27.2646C4.39779 26.6501 3.94779 26.1534 3.33335 26.1534C2.7189 26.1534 2.17557 26.6501 2.17557 27.2646C2.17557 33.9312 6.66668 38.4223 13.3333 38.4223C13.9478 38.4223 14.4445 37.879 14.4445 37.2646C14.4445 36.6501 13.9478 36.2001 13.3333 36.2001Z" fill="#5DADEC"/>
<path d="M7.77778 38.3757C4.44444 38.3757 2.22222 36.1534 2.22222 32.8201C2.22222 32.5254 2.10516 32.2428 1.89679 32.0344C1.68841 31.8261 1.4058 31.709 1.11111 31.709C0.816426 31.709 0.533811 31.8261 0.325437 32.0344C0.117063 32.2428 0 32.5254 0 32.8201C0 37.2645 3.33333 40.5979 7.77778 40.5979C8.07246 40.5979 8.35508 40.4808 8.56345 40.2724C8.77183 40.0641 8.88889 39.7815 8.88889 39.4868C8.88889 39.1921 8.77183 38.9095 8.56345 38.7011C8.35508 38.4927 8.07246 38.3757 7.77778 38.3757ZM26.6667 2.8201C26.372 2.8201 26.0894 2.93716 25.881 3.14554C25.6726 3.35391 25.5556 3.63653 25.5556 3.93121C25.5556 4.2259 25.6726 4.50851 25.881 4.71688C26.0894 4.92526 26.372 5.04232 26.6667 5.04232C31.1111 5.04232 35.5556 9.0301 35.5556 13.9312C35.5556 14.2259 35.6726 14.5085 35.881 14.7169C36.0894 14.9253 36.372 15.0423 36.6667 15.0423C36.9614 15.0423 37.244 14.9253 37.4523 14.7169C37.6607 14.5085 37.7778 14.2259 37.7778 13.9312C37.7778 7.80454 33.3333 2.8201 26.6667 2.8201Z" fill="#5DADEC"/>
<path d="M32.2222 0.644547C31.6089 0.644547 31.1111 1.09566 31.1111 1.70899C31.1111 2.32232 31.6089 2.86677 32.2222 2.86677C35.5556 2.86677 37.7311 5.33899 37.7311 8.37566C37.7311 8.98899 38.2744 9.48677 38.8889 9.48677C39.5033 9.48677 39.9533 8.98899 39.9533 8.37566C39.9533 4.11232 36.6667 0.644547 32.2222 0.644547Z" fill="#5DADEC"/>
</g>
<defs>
<clipPath id="clip0_536_2004">
<rect width="40" height="40" fill="white" transform="translate(0 0.597885)"/>
</clipPath>
</defs>
</svg>
