<svg fill="#ffffff" viewBox="0 0 24 24" xmlns="http://www.w3.org/2000/svg"><path d="m7 9.3 1.15-1.15a.5.5 0 1 1 .7.7l-2 2a.5.5 0 0 1-.7 0l-2-2a.5.5 0 1 1 .7-.7L6 9.29V3.71L4.85 4.85a.5.5 0 1 1-.7-.7l2-2c.2-.2.5-.2.7 0l2 2a.5.5 0 1 1-.7.7L7 3.71zm7 .2v2.55a1.41 1.41 0 0 1-2.32 1.08l-.92-.77A1.6 1.6 0 0 0 9.75 12a.7.7 0 0 0-.62.4l-.04.07a.8.8 0 0 0 .1.85l4.42 5.32A3.8 3.8 0 0 0 16.5 20a4.5 4.5 0 0 0 4.5-4.5v-4a.5.5 0 1 0-1 0v1a.5.5 0 1 1-1 0v-2a.5.5 0 1 0-1 0v2a.5.5 0 1 1-1 0v-3a.5.5 0 1 0-1 0v3a.5.5 0 1 1-1 0v-7a.5.5 0 1 0-1 0zm-1 0v-4a1.5 1.5 0 0 1 3 0v2.59a1.5 1.5 0 0 1 1.95 1.02 1.5 1.5 0 0 1 2 1A1.5 1.5 0 0 1 22 11.5v4a5.5 5.5 0 0 1-5.5 5.5 4.8 4.8 0 0 1-3.66-1.72l-4.42-5.32a1.8 1.8 0 0 1-.23-1.93l.03-.07A1.7 1.7 0 0 1 9.75 11c.6 0 1.18.21 1.65.6l.92.77a.41.41 0 0 0 .68-.32z"/></svg>