<svg style="display:none" aria-hidden="true">
	<defs>

		<symbol id="icon-star" viewBox="0 0 47.94 47.94">
			<path fill="currentColor" d="m26.29 2.49 5.4 10.95c.38.76 1.1 1.3 1.95 1.41l12.09 1.76a2.58 2.58 0 0 1 1.43 4.4l-8.75 8.53c-.6.6-.89 1.45-.74 2.29l2.06 12.04A2.58 2.58 0 0 1 36 46.59l-10.82-5.68c-.75-.4-1.65-.4-2.4 0l-10.82 5.68c-1.89 1-4.1-.61-3.74-2.72l2.06-12.04c.15-.84-.13-1.7-.74-2.29L.78 21.01a2.58 2.58 0 0 1 1.43-4.4l12.1-1.76a2.6 2.6 0 0 0 1.94-1.4l5.4-10.96a2.58 2.58 0 0 1 4.64 0"/>
		</symbol>

		<symbol id="icon-eye" viewBox="0 0 19 13" fill="none">
			<path fill="currentColor" d="M9.17.48A9.9 9.9 0 0 0 0 6.73a9.86 9.86 0 0 0 18.33 0A9.9 9.9 0 0 0 9.17.48m0 10.42a4.17 4.17 0 1 1 0-8.34 4.17 4.17 0 0 1 0 8.34m0-6.67a2.5 2.5 0 1 0-.01 5 2.5 2.5 0 0 0 0-5" />
		</symbol>

	</defs>
</svg>
