<svg style="display:none" aria-hidden="true">

	<symbol id="icon-star" viewBox="0 0 47.94 47.94">
		<path fill="currentColor" d="m26.29 2.49 5.4 10.95c.38.76 1.1 1.3 1.95 1.41l12.09 1.76a2.58 2.58 0 0 1 1.43 4.4l-8.75 8.53c-.6.6-.89 1.45-.74 2.29l2.06 12.04A2.58 2.58 0 0 1 36 46.59l-10.82-5.68c-.75-.4-1.65-.4-2.4 0l-10.82 5.68c-1.89 1-4.1-.61-3.74-2.72l2.06-12.04c.15-.84-.13-1.7-.74-2.29L.78 21.01a2.58 2.58 0 0 1 1.43-4.4l12.1-1.76a2.6 2.6 0 0 0 1.94-1.4l5.4-10.96a2.58 2.58 0 0 1 4.64 0"/>
	</symbol>

	<symbol id="icon-eye" viewBox="0 0 19 13" fill="none">
		<path fill="currentColor" d="M9.17.48A9.9 9.9 0 0 0 0 6.73a9.86 9.86 0 0 0 18.33 0A9.9 9.9 0 0 0 9.17.48m0 10.42a4.17 4.17 0 1 1 0-8.34 4.17 4.17 0 0 1 0 8.34m0-6.67a2.5 2.5 0 1 0-.01 5 2.5 2.5 0 0 0 0-5" />
	</symbol>
	
	<symbol id="icon-avatar" viewBox="0 0 32 32">
		<path
			fill="currentColor"
			d="M16 8a5 5 0 1 0 5 5 5 5 0 0 0-5-5m0 8a3 3 0 1 1 3-3 3 3 0 0 1-3 3"
		/>
		<path
			fill="currentColor"
			d="M16 2a14 14 0 1 0 14 14A14 14 0 0 0 16 2m-6 24.4V25a3 3 0 0 1 3-3h6a3 3 0 0 1 3 3v1.4a12 12 0 0 1-12 0m14-1.5a5 5 0 0 0-5-4.9h-6a5 5 0 0 0-5 5 12 12 0 1 1 16 0"
		/>
		<path d="M0 0h32v32H0z" fill="none"/>
	</symbol>	

	<symbol id="icon-github" viewBox="16 16 97 97" fill="none">
		<path
			d="M56.8 85c-12.4-1.5-21.1-10.4-21.1-22 0-4.7 1.7-9.7 4.5-13-1.2-3.2-1-9.7.4-12.5 3.7-.4 8.8 1.5 11.8 4.3C56 40.6 59.7 40 64.3 40Q71 40 76 41.7c3-2.7 8-4.6 11.8-4.2 1.3 2.6 1.5 9.1.3 12.3 3 3.6 4.6 8.4 4.6 13.2 0 11.6-8.7 20.3-21.3 21.9 3.2 2 5.4 6.5 5.4 11.7v9.7c0 2.9 2.3 4.5 5.1 3.3a47.5 47.5 0 0 0 30.3-44.4 48 48 0 1 0-96 0c0 20.8 13.2 38 31 44.5 2.6 1 5-.7 5-3.3V99q-2.1 1-4.5 1c-6.2 0-9.8-3.4-12.5-9.7-1-2.5-2.1-4-4.3-4.3q-1.6-.2-1.5-1.1c0-1.1 1.9-2 3.8-2q3.9 0 7.5 5.2 2.6 4 6.2 4c2.3 0 3.8-1 6-3z"
			fill="currentColor"
		/>
	</symbol>

	<symbol id="icon-bem" viewBox="0 0 101.7 84">
		<path fill="#17a1e6" d="M0 13h23.8v7H0zM0 0h23.8v7H0zm42.7 25.9H0v7h41.1c4.5 0 15 .1 18.9 6.4v-3.9q-2.7-9.4-17.3-9.5m.1 13H0v7h41.1q15-.2 18.9 1.8v-3.1c-2-4.9-10.4-5.7-17.2-5.7m-.1 33H0v-7h41.1c4.5 0 15-.1 18.9-6.4v3.9q-2.7 9.4-17.3 9.5m.1-13H0v-7h41.1q15 .2 18.9-1.8v3.1c-2 4.9-10.4 5.7-17.2 5.7M70.4 84h31.4v-4.3H71.3c-2.7 0-9.1-.1-11.4-3.8v2.4q1.6 5.6 10.5 5.7m-.1-7.9h31.4v-4.3H71.3q-9.1.1-11.4-1.1v1.9c1.2 3 6.3 3.5 10.4 3.5"/>
	</symbol>

	<symbol id="icon-css" fill="none" viewBox="0 0 40 41">
		<path fill="#1572b6" d="M7.378 34.23 4.57 2.728h30.86l-2.811 31.497-12.638 3.503z"/>
		<path fill="#33a9dc" d="m20 35.05 10.212-2.83 2.403-26.915H20z"/>
		<path fill="#fff" d="M20 16.717h5.113l.352-3.956H20V8.897h9.688l-.093 1.036-.949 10.648H20z"/>
		<path fill="#ebebeb" d="m20.024 26.75-.018.006-4.302-1.163-.275-3.08H11.55l.541 6.065 7.914 2.198.019-.005z"/>
		<path fill="#fff" d="m24.784 20.417-.465 5.174-4.309 1.162v4.02l7.92-2.195.059-.652.671-7.509z"/>
		<path fill="#ebebeb" d="M20.014 8.897v3.864H10.68l-.077-.869-.176-1.959-.093-1.036zM20 16.717v3.864h-4.249l-.077-.869-.175-1.959-.093-1.036z"/>
	</symbol>

	<symbol id="icon-figma" fill="none" viewBox="0 0 40 41">
		<g clip-path="url(#a)">
			<path fill="#0acf83" d="M13.333 40.228A6.67 6.67 0 0 0 20 33.562v-6.667h-6.667a6.67 6.67 0 0 0-6.666 6.667 6.67 6.67 0 0 0 6.666 6.666"/>
			<path fill="#a259ff" d="M6.667 20.228a6.67 6.67 0 0 1 6.666-6.666H20v13.333h-6.667a6.67 6.67 0 0 1-6.666-6.667"/>
			<path fill="#f24e1e" d="M6.667 6.895A6.67 6.67 0 0 1 13.333.228H20v13.334h-6.667a6.67 6.67 0 0 1-6.666-6.667"/>
			<path fill="#ff7262" d="M20 .228h6.667a6.67 6.67 0 0 1 6.666 6.667 6.67 6.67 0 0 1-6.666 6.667H20z"/>
			<path fill="#1abcfe" d="M33.333 20.228a6.67 6.67 0 0 1-6.666 6.667A6.67 6.67 0 0 1 20 20.228a6.67 6.67 0 0 1 6.667-6.666 6.67 6.67 0 0 1 6.666 6.666"/>
		</g>
		<defs>
			<clipPath id="a">
				<path fill="#fff" d="M0 .228h40v40H0z"/>
			</clipPath>
		</defs>
	</symbol>

	<symbol id="icon-git" fill="none" viewBox="0 0 40 41">
		<g clip-path="url(#b)">
			<path fill="#de4c36" d="M39.246 18.446 21.78.983a2.576 2.576 0 0 0-3.643 0l-3.626 3.626 4.6 4.6a3.058 3.058 0 0 1 3.874 3.9l4.434 4.434a3.064 3.064 0 0 1 3.167 5.062 3.065 3.065 0 0 1-5.003-3.333l-4.135-4.135v10.88a3.065 3.065 0 1 1-2.52-.09v-10.98a3.064 3.064 0 0 1-1.664-4.02L12.73 6.39.755 18.365a2.577 2.577 0 0 0 0 3.645l17.464 17.463a2.576 2.576 0 0 0 3.643 0l17.384-17.382a2.58 2.58 0 0 0 0-3.645"/>
		</g>
		<defs>
			<clipPath id="b">
				<path fill="#fff" d="M0 .228h40v40H0z"/>
			</clipPath>
		</defs>
	</symbol>

	<symbol id="icon-gulp" preserveAspectRatio="xMinYMin meet" viewBox="-155 0 566 566">
		<path fill="#d34a47" d="m197.3 548.7 5.4-90.4 15-25.6s-34.1 14-91.2 14S35.8 433 35.8 433l16.8 27.9 6 87.8c0 9.5 31 17.1 69.3 17.1s69.4-7.6 69.4-17m-17.1-422.3 11.4-45 63-66.4L238 .9l-66.8 70.7-13.2 53.8a886 886 0 0 0-29.9-.5c-70.3 0-127.3 8-127.3 17.9s57 17.9 127.3 17.9c70.4 0 127.4-8 127.4-17.9 0-7.3-31-13.5-75.3-16.3"/>
		<path fill="#fff" d="M173.5 151.7s-2.4.5-9.7.6-12.4 0-14.5-2c-.5-.5-.8-1.5-.8-2.1 0-1.3 1-2 2-2.6l1.2 1.8q-.8.2-.8.5c0 1 7.4 1.7 13.1 1.6s12.6-.5 12.6-1.5q0-.5-1.4-.8l1-1.7c1.5.5 2.8 1.4 2.8 2.9 0 2.6-3.3 3-5.5 3.3"/>
		<path fill="#d34a47" d="M254.5 15.2c1.6-1.8-.8-6.5-5.4-10.5-4.5-4-9.5-5.6-11-3.8-1.7 1.8.7 6.5 5.3 10.5 4.5 3.9 9.5 5.6 11.1 3.8m-60.3 312.7c-1.4-14.4 31.5-35.3 23-36-18.2 1.1-27.2 21.4-36.4 42.7-3.3 7.8-14.8 41-22.4 36.9-7.5-4 9.8-31.4 14.7-47.6-5.6 4-26.2 20-31.4 5-8.5 7.3-26.7 11.2-24.7-7.7-4.5 8-14.6 19.1-26.8 14.5-16-6.1 9.3-57 15.5-54.5 6.3 2.6-1.2 14.2-3.2 18.7-4.4 10-9.4 22.4-6 25 5.7 4.3 21.4-16.6 21.7-17 3-4 11.3-29.2 18-26.3s-16.7 36.3-8 43c1.8 1.2 9-1 13.5-5.7 2.8-3 1.8-9.9 11.3-32.6 9.5-22.6 18-50.9 24.5-48.7s1.2 16.6-1.2 22c-11 25.4-30 67.3-21 64 9-3 13.6-3.3 22.4-13.5 8.8-10.3 8.4-27.2 14.2-26.8 5.9.3 4.9 5.8 3.5 9.9 5.7-6.6 27.2-20.5 32.4-6.7 6.2 16.2-30.8 39.7-21.6 38.5a56 56 0 0 0 29.8-18.8l17-153.6s-17.1 14.2-126.5 14.2S1.7 153 1.7 153l14.5 140.2c7.7-22 26-66.3 55-64.8 13.1.7 30.7 26 15.6 26.8-6.3.4-7-12.6-14.5-14.5-5.4-1.4-13 3-18 7.8-9.7 9.6-30.7 47.3-27.9 66 3.5 24 33-8.3 38-17.9 3.6-6.7 6-26.7 13.6-24.6 7.7 2-.6 22.7-6.2 41-6.3 20.5-9.6 42-17.4 39.6-7.9-2.5 5-29 4.5-33.6-7.4 6.8-21 24-38.4 15.5l9 87.1s24 19 96.4 19c72.3 0 97.2-18.7 97.2-18.7L234.3 321c-9.1 9-38.2 24.9-40 7"/>
	</symbol>

	<symbol id="icon-html" fill="none" viewBox="0 0 40 41">
		<path fill="#e44f26" d="M7.38 34.23 4.57 2.73h30.86l-2.81 31.5-12.64 3.5z"/>
		<path fill="#f1662a" d="m20 35.05 10.21-2.83 2.4-26.92H20z"/>
		<path fill="#ebebeb" d="M20 16.99h-5.11l-.36-3.96H20V9.17h-9.69l.1 1.03.94 10.65H20zm0 10.03h-.02l-4.3-1.16-.28-3.08h-3.87l.54 6.07 7.91 2.2H20z"/>
		<path fill="#fff" d="M19.99 16.99v3.86h4.75l-.44 5.01-4.31 1.16v4.02l7.92-2.2.05-.64.91-10.18.1-1.03zm0-7.82v3.86h9.33l.08-.87.17-1.96.1-1.03z"/>
	</symbol>

	<symbol id="icon-js" fill="none" viewBox="0 0 40 41">
		<g clip-path="url(#c)">
			<path fill="#f7df1e" d="M0 .23h40v40H0z"/>
			<path fill="#000" d="m10.52 33.66 3.06-1.86c.59 1.05 1.13 1.94 2.41 1.94 1.24 0 2.02-.49 2.02-2.37V18.6h3.76v12.84c0 3.89-2.28 5.66-5.61 5.66a5.8 5.8 0 0 1-5.64-3.44m13.29-.4 3.06-1.77c.8 1.32 1.85 2.28 3.7 2.28 1.56 0 2.56-.78 2.56-1.85 0-1.29-1.02-1.75-2.74-2.5l-.94-.4c-2.71-1.15-4.51-2.6-4.51-5.67 0-2.81 2.15-4.96 5.5-4.96 2.4 0 4.11.83 5.34 3l-2.92 1.88c-.65-1.15-1.34-1.6-2.42-1.6-1.1 0-1.8.7-1.8 1.6 0 1.13.7 1.59 2.31 2.29l.94.4c3.2 1.37 5 2.77 5 5.9 0 3.39-2.66 5.24-6.23 5.24-3.5 0-5.75-1.66-6.85-3.84"/>
		</g>
		<defs> 
			<clipPath id="c">
				<path fill="#fff" d="M0 .23h40v40H0z"/>
			</clipPath>
		</defs>
	</symbol>

	<symbol id="icon-nodejs" preserveAspectRatio="xMidYMid" viewBox="0 0 256 289">
		<path fill="#539e43" d="M128 288.46c-3.98 0-7.69-1.06-11.13-2.91L81.62 264.6c-5.3-2.91-2.65-3.97-1.06-4.5 7.16-2.39 8.48-2.92 15.9-7.16.8-.53 1.86-.26 2.65.27l27.03 16.16c1.06.53 2.39.53 3.19 0l105.73-61.21c1.06-.53 1.6-1.6 1.6-2.92V83.08c0-1.32-.54-2.38-1.6-2.91L129.33 19.2c-1.06-.53-2.39-.53-3.19 0L20.41 80.17c-1.06.53-1.6 1.85-1.6 2.91v122.17c0 1.06.54 2.39 1.6 2.92l28.88 16.7c15.64 7.94 25.44-1.33 25.44-10.6V93.67a3.2 3.2 0 0 1 3.18-3.18h13.52a3.2 3.2 0 0 1 3.18 3.18v120.58c0 20.94-11.4 33.13-31.27 33.13-6.1 0-10.87 0-24.38-6.63l-27.83-15.9A22.4 22.4 0 0 1 0 205.52V83.35C0 75.4 4.24 67.98 11.13 64L116.87 2.78a23.7 23.7 0 0 1 22.26 0L244.87 64A22.4 22.4 0 0 1 256 83.35v122.17c0 7.95-4.24 15.37-11.13 19.34l-105.74 61.22a27 27 0 0 1-11.13 2.38m32.6-84c-46.38 0-55.92-21.2-55.92-39.23a3.2 3.2 0 0 1 3.18-3.18h13.78c1.59 0 2.91 1.06 2.91 2.65 2.12 14.05 8.22 20.94 36.31 20.94 22.26 0 31.8-5.04 31.8-16.96 0-6.9-2.65-11.93-37.36-15.37-28.89-2.92-46.91-9.28-46.91-32.33 0-21.47 18.02-34.19 48.23-34.19 33.92 0 50.62 11.66 52.74 37.1q0 1.2-.8 2.39c-.53.53-1.32 1.06-2.12 1.06h-13.78a3.1 3.1 0 0 1-2.91-2.39c-3.18-14.57-11.4-19.34-33.13-19.34-24.38 0-27.3 8.48-27.3 14.84 0 7.68 3.45 10.07 36.31 14.3 32.6 4.25 47.97 10.34 47.97 33.13-.27 23.32-19.35 36.58-53 36.58"/>
	</symbol>

	<symbol id="icon-react" viewBox="-11.5 -10.23 23 20.46">
		<circle r="2.05" fill="#149eca"/>
		<g fill="none" stroke="#149eca">
			<ellipse rx="11" ry="4.2"/>
			<ellipse rx="11" ry="4.2" transform="rotate(60)"/>
			<ellipse rx="11" ry="4.2" transform="rotate(120)"/>
		</g>
	</symbol>

	<symbol id="icon-ts" preserveAspectRatio="xMidYMid" viewBox="0 0 256 256">
		<path fill="#007acc" d="M0 128v128h256V0H0z"/>
		<path fill="#fff" d="m56.61 128.85-.08 10.48h33.32v94.68h23.57v-94.68h33.32v-10.28c0-5.69-.12-10.44-.29-10.56-.12-.17-20.4-.25-44.98-.2l-44.74.12zm149.96-10.75a32 32 0 0 1 16 9.23c2.36 2.52 5.86 7.11 6.14 8.21.08.33-11.05 7.8-17.8 11.99-.24.16-1.21-.9-2.31-2.52-3.3-4.8-6.75-6.87-12.03-7.23-7.76-.53-12.76 3.53-12.72 10.32 0 1.99.29 3.17 1.1 4.8 1.7 3.53 4.88 5.64 14.83 9.95 18.33 7.88 26.17 13.08 31.05 20.48 5.44 8.25 6.66 21.41 2.96 31.2-4.06 10.65-14.14 17.88-28.32 20.28-4.39.77-14.8.65-19.5-.2-10.29-1.83-20.04-6.9-26.05-13.57-2.36-2.6-6.95-9.39-6.67-9.88a20 20 0 0 1 2.36-1.5c1.14-.65 5.45-3.13 9.5-5.49l7.36-4.26 1.55 2.27c2.15 3.3 6.87 7.8 9.71 9.3 8.17 4.31 19.38 3.7 24.9-1.25 2.37-2.16 3.34-4.4 3.34-7.68 0-2.97-.36-4.27-1.9-6.5-2-2.85-6.06-5.25-17.6-10.24-13.21-5.7-18.9-9.23-24.1-14.84-3-3.25-5.85-8.45-7.03-12.8-.98-3.61-1.22-12.67-.45-16.33 2.73-12.76 12.36-21.66 26.25-24.3 4.51-.85 15-.53 19.43.57"/>
	</symbol>

	<symbol id="icon-webpack" viewBox="0 0 600 600">
		<path d="m300 .1 265 149.9v299.9l-265 149.9-265-149.9v-299.9z" fill="#fff"/>
		<path d="m517.7 439.5-208.9 118.3v-92l130.2-71.7zm14.3-12.9v-247.2l-76.4 44.1v159zm-450.5 12.9 208.9 118.2v-92l-130.2-71.6zm-14.3-12.9v-247.2l76.4 44.1v159zm8.9-263.2 214.3-121.2v89l-137.3 75.5-1.1.6zm446.9 0-214.2-121.2v89l137.2 75.6 1.1.6z" fill="#8ed6fb"/>
		<path d="m290.4 444.8-128.4-70.7v-139.9l128.4 74.1zm18.4 0 128.4-70.6v-140l-128.4 74.1zm-138.2-226.8 129-70.9 128.9 70.9-128.9 74.4z" fill="#1c78c0"/>
	</symbol>

	<symbol id="icon-sass" viewBox="0 0 256 256">
		<g fill="none" stroke-miterlimit="10" stroke-width="0">
			<path fill="#d06397" fill-rule="evenodd" d="M127.86 1.4c69.83 0 126.45 56.62 126.45 126.46 0 69.83-56.62 126.45-126.45 126.45S1.4 197.69 1.4 127.86 58.02 1.4 127.86 1.4"/>
			<path fill="#fff" d="M207.17 55.53c-5.72-22.46-42.96-29.84-78.2-17.32-20.98 7.45-43.68 19.15-60 34.42-19.42 18.15-22.52 33.95-21.24 40.56 4.5 23.3 36.43 38.53 49.55 49.83v.07c-3.87 1.9-32.2 16.23-38.82 30.89-7 15.46 1.1 26.55 6.48 28.05 16.62 4.62 33.7-3.7 42.86-17.38 8.86-13.2 8.12-30.25 4.27-38.73 5.3-1.4 11.5-2.03 19.36-1.1 22.18 2.58 26.53 16.43 25.7 22.23s-5.49 8.98-7.04 9.94c-1.56.97-2.04 1.3-1.9 2.02.19 1.04.9 1 2.23.77 1.83-.3 11.65-4.71 12.07-15.41.53-13.59-12.49-28.78-35.54-28.39-9.49.16-15.46 1.07-19.77 2.67l-.98-1.08c-14.25-15.2-40.6-25.96-39.48-46.4.41-7.43 3-27 50.62-50.73C156.36 41 187.6 46.35 193 58.21c7.71 16.94-16.7 48.42-57.21 52.96-15.44 1.73-23.57-4.25-25.59-6.48-2.13-2.34-2.44-2.45-3.24-2-1.3.7-.47 2.78 0 4.02 1.21 3.14 6.17 8.73 14.64 11.5 7.44 2.45 25.57 3.8 47.49-4.69 24.55-9.5 43.73-35.9 38.1-57.99M102.73 169.98c1.84 6.8 1.63 13.15-.26 18.9a31 31 0 0 1-1.52 3.74 35 35 0 0 1-5.84 8.51c-7.35 8.02-17.61 11.05-22.01 8.5-4.76-2.76-2.37-14.06 6.14-23.07 9.17-9.68 22.35-15.91 22.35-15.91l-.02-.04z"/>
		</g>
	</symbol>

	<symbol id="icon-freelancehunt" viewBox="0 0 162.46 162.53">
		<path fill="currentColor" d="M81.23 0a81.23 81.23 0 1 0 81.23 81.23A81.24 81.24 0 0 0 81.23 0m0 142.77a61.54 61.54 0 1 1 61.54-61.54 61.6 61.6 0 0 1-61.54 61.54"/>
		<path fill="currentColor" d="M71.38 93.1a14.75 14.75 0 0 0 19.7 0V69.5a14.7 14.7 0 0 0-19.7 0zm9.85-53.64a41.8 41.8 0 0 0-29.56 12.26l13.9 13.92a22.14 22.14 0 0 1 31.31 0l13.92-13.92a41.7 41.7 0 0 0-29.58-12.26zM96.9 97a22.13 22.13 0 0 1-31.31 0l-13.9 13.88a41.8 41.8 0 0 0 59.14 0zm-15.7 65.53a20.9 20.9 0 0 0-14.38-21.42h-.08a61.6 61.6 0 0 1-46-49.94h40.8a21.3 21.3 0 0 1 0-19.7H20.7a61.37 61.37 0 0 1 92.43-42.78 19.64 19.64 0 0 0 25.6-4.77A81.23 81.23 0 1 0 81.2 162.53"/>
	</symbol>

</svg>
